<svg id="Layer_1" data-name="Layer 1" xmlns="http://www.w3.org/2000/svg" xmlns:xlink="http://www.w3.org/1999/xlink" viewBox="0 0 96.28 24.84"><defs><style>.cls-1{fill:#150b65;}.cls-2{fill:#221689;}.cls-3{fill:#958be4;}.cls-4{fill:url(#linear-gradient);}.cls-5{fill:#3c4550;}</style><linearGradient id="linear-gradient" x1="16.72" y1="12.65" x2="12.12" y2="10" gradientUnits="userSpaceOnUse"><stop offset="0" stop-color="#958be4"/><stop offset="0.62" stop-color="#776adc"/><stop offset="1" stop-color="#695bd8"/></linearGradient></defs><title>vaultLogo</title><polygon class="cls-1" points="17.97 0 0 0 0 24.84 24.12 24.84 3.74 24.84 17.97 0"/><polygon class="cls-2" points="24.84 0 17.93 0 3.65 24.84 24.84 24.84 24.84 0"/><polygon class="cls-3" points="4.49 5.61 10.62 5.61 15.65 14.44 12.63 19.7 4.49 5.61"/><polygon class="cls-4" points="20.79 5.61 14.66 5.61 9.62 14.44 12.64 19.7 20.79 5.61"/><path class="cls-5" d="M43.38,23.66,38.15,11.2H41.3L44.77,20,48.2,11.2h3.15L46.13,23.66Z" transform="translate(-5.65 -5.09)"/><path class="cls-5" d="M55.74,21.59l-.8,2.07H51.77L57,11.2h2.75L65,23.66H61.84L61,21.59Zm2.66-6.72-1.68,4.28h3.35Z" transform="translate(-5.65 -5.09)"/><path class="cls-5" d="M78.61,18.79c0,3-2.24,5-5.61,5s-5.64-2-5.64-5V11.2h3v7.48a2.68,2.68,0,1,0,5.35,0V11.2h3Z" transform="translate(-5.65 -5.09)"/><path class="cls-5" d="M91.14,23.66H82.89V11.2h3v10h5.29Z" transform="translate(-5.65 -5.09)"/><path class="cls-5" d="M98.24,13.64v10h-3v-10H91.59V11.2h10.34v2.44Z" transform="translate(-5.65 -5.09)"/></svg>